<svg width="16" height="16" viewBox="0 0 16 16" fill="none" xmlns="http://www.w3.org/2000/svg">
<path d="M14.6494 16L9.93622 11.2868C9.45388 11.6726 8.89919 11.9781 8.27214 12.2032C7.6451 12.4283 6.97786 12.5409 6.27043 12.5409C4.51792 12.5409 3.03489 11.9338 1.82132 10.7195C0.607749 9.50533 0.000643121 8.02229 0 6.27043C0 4.51792 0.607106 3.03489 1.82132 1.82132C3.03553 0.607749 4.51857 0.000643121 6.27043 0C8.02293 0 9.50597 0.607106 10.7195 1.82132C11.9331 3.03553 12.5402 4.51857 12.5409 6.27043C12.5409 6.97786 12.4283 7.6451 12.2032 8.27214C11.9781 8.89919 11.6726 9.45388 11.2868 9.93622L16 14.6494L14.6494 16ZM6.27043 10.6115C7.47628 10.6115 8.50142 10.1893 9.34583 9.34487C10.1903 8.50045 10.6121 7.47564 10.6115 6.27043C10.6115 5.06458 10.1893 4.03944 9.34487 3.19502C8.50045 2.35061 7.47564 1.92872 6.27043 1.92936C5.06458 1.92936 4.03944 2.35157 3.19502 3.19599C2.35061 4.04041 1.92872 5.06522 1.92936 6.27043C1.92936 7.47628 2.35157 8.50142 3.19599 9.34583C4.04041 10.1903 5.06522 10.6121 6.27043 10.6115Z" fill="#77828C"/>
</svg>
